Coordinates
nRows=109
nColumns=2
inDegrees=yes
endheader
time	ankle_angle_r	
3.86492	 18.459953	
3.93649	 18.539429	
4.00806	 18.421789	
4.07964	 18.356323	
4.15121	 18.470114	
4.22278	 18.486465	
4.29435	 18.470999	
4.36593	 18.463135	
4.4375	 18.508911	
4.50907	 18.554688	
4.58065	 18.410326	
4.65222	 18.425793	
4.72379	 18.491625	
4.79536	 18.493652	
4.86694	 18.426418	
4.93851	 18.414083	
5.01008	 18.463135	
5.08165	 18.529745	
5.15323	 18.499020	
5.2248	 18.483334	
5.29637	 18.478394	
5.36794	 18.589949	
5.43952	 18.478394	
5.51109	 18.517567	
5.58266	 18.520050	
5.65423	 18.436529	
5.72581	 18.474689	
5.79738	 18.451372	
5.86895	 18.563372	
5.94052	 18.524170	
6.0121	 18.511782	
6.08367	 18.422686	
6.15524	 18.524170	
6.22681	 18.554688	
6.29839	 18.480433	
6.36996	 18.495483	
6.44153	 18.510534	
6.5131	 18.538013	
6.58468	 18.507704	
6.65625	 18.555687	
6.72782	 18.540220	
6.7994	 18.432617	
6.87097	 18.600464	
6.94254	 18.356323	
7.01411	 18.508993	
7.08569	 18.508911	
7.15726	 18.538515	
7.22883	 18.508245	
7.3004	 18.463135	
7.37198	 18.432617	
7.44355	 18.489784	
7.51512	 18.478394	
7.58669	 18.507206	
7.65827	 18.522257	
7.72984	 18.543671	
7.80141	 18.526499	
7.87298	 18.524170	
7.94456	 18.389585	
8.01613	 18.408007	
8.0877	 18.472071	
8.15927	 18.386841	
8.23085	 18.478394	
8.30242	 18.493652	
8.37399	 18.493652	
8.44556	 18.463135	
8.51714	 18.463135	
8.58871	 18.524170	
8.66028	 18.463135	
8.73185	 18.478394	
8.80343	 18.463600	
8.875	 18.367222	
8.94657	 18.438274	
9.01815	 18.493652	
9.08972	 18.493652	
9.16129	 18.472113	
9.23286	 18.508911	
9.30444	 18.537565	
9.37601	 18.456228	
9.44758	 18.486538	
9.51915	 18.485716	
9.59073	 18.524170	
9.6623	 18.432617	
9.73387	 18.562000	
9.80544	 18.507862	
9.87702	 18.478394	
9.94859	 18.504103	
10.0202	 18.526466	
10.0917	 18.508911	
10.1633	 18.472328	
10.2349	 18.476082	
10.3065	 18.474432	
10.378	 18.503469	
10.4496	 18.473162	
10.5212	 18.412334	
10.5927	 18.457510	
10.6643	 18.569946	
10.7359	 18.489252	
10.8075	 18.467327	
10.879	 18.467119	
10.9506	 18.569946	
11.0222	 18.466703	
11.0937	 18.456413	
11.1653	 18.512064	
11.2369	 18.405045	
11.3085	 18.490915	
11.38	 18.430088	
11.4516	 18.424320	
11.5232	 18.478394	
11.5948	 18.465038	
